<svg xmlns="http://www.w3.org/2000/svg" width="21" height="22" fill="none"><path fill="#78C0DE" d="M6.704 13.319c-.3.615-.428 1.13-.436 1.164a.432.432 0 0 0 .194.47c.087.054 2.151 1.3 3.865.593a5.28 5.28 0 0 0 .401-.186c-1.461-.364-2.831-1.13-4.024-2.041ZM6.742 7.748c.003.003.151.123.348.316C8.686 6.927 10.56 6.08 12.522 6.08c.433 0 .87.025 1.307.077-.224-.404-.598-.825-1.198-1.225-1.178-.785-2.699-.188-3.893.565a12.972 12.972 0 0 0-2.032 1.608c-.18.181-.166.48.036.643ZM5.517 12.313a11.487 11.487 0 0 1-.61-.614 1.296 1.296 0 0 1 0-1.73c.114-.128.343-.363.61-.614A7.008 7.008 0 0 1 3.93 7.64a.432.432 0 0 0-.665-.066c-.645.645-1 1.422-.974 2.133.028.748.028 1.506 0 2.254-.026.71.329 1.488.974 2.133.192.193.514.16.665-.066a7.008 7.008 0 0 1 1.587-1.715Z"/><path fill="#78C0DE" d="M15.353 14.08c-1.309-1.504-1.311-4.977-.004-6.489.015-.017.006-.007.204-.205a10.927 10.927 0 0 0-3.03-.442c-2.213 0-4.377 1.251-6.029 2.692-.414.36-.773.719-.945.91a.432.432 0 0 0 0 .576c.368.412 1.131 1.117 1.952 1.713 1.255.909 2.704 1.642 4.235 1.838.007-.007.276.045.816.05a10.95 10.95 0 0 0 2.982-.433l-.181-.21Z"/><path fill="#78C0DE" d="M19.846 11.81c.204-.257.388-.589.412-.92.054-.726-.754-1.47-1.34-1.902-.73-.538-1.607-.98-2.447-1.297l-.478.477c-1.016 1.195-1.008 4.172.013 5.346l.418.484c1.164-.434 2.659-1.213 3.422-2.188Zm-3.14-1.34a.431.431 0 1 1 .825-.251.431.431 0 0 1-.825.252Z"/></svg>