<svg xmlns="http://www.w3.org/2000/svg" width="62" height="77" fill="none"><path fill="#F6BB92" d="M52.445 67.799V56.286h7.676v14.071a5.117 5.117 0 0 1-5.117 5.117h-2.559v-7.675Z"/><path fill="#834B10" d="m56.285 44.773 1.08-2.559.958-2.269a6.661 6.661 0 0 0-1.43-7.293 6.663 6.663 0 0 1-1.951-4.71v-6.195H26.863v6.195a6.662 6.662 0 0 1-1.95 4.71 6.662 6.662 0 0 0-1.431 7.293l1.013 2.412 31.79 2.416Z"/><path fill="#85BC94" d="M60.119 49.995a7.675 7.675 0 0 0-6.413-7.57l-1.262-.21-6.607-1.102-4.906 4.939-4.959-4.977-9.113 1.14v33.259h25.585V65.24a7.238 7.238 0 0 0 1.017-8.954h6.658v-6.29Z"/><path fill="#834B10" d="M55.002 23.026H26.86v-7.675a14.071 14.071 0 1 1 28.143 0v7.675Z"/><path fill="#F6BB92" d="M51.164 19.188h-1.279v-7.675H31.976v7.675h-1.279a3.838 3.838 0 0 0 0 7.676h1.28v1.279a8.955 8.955 0 0 0 17.908 0v-1.28h1.28a3.838 3.838 0 0 0 0-7.675Z"/><path fill="#BD9070" d="M39.654 50.937v24.537H11.03a24.704 24.704 0 0 1 3.313-4.113l.095-.094a25.357 25.357 0 0 0 5.39-7.954l1.367-3.19.549-1.279h-3.681a5.121 5.121 0 0 1-4.964-3.876l-.63-2.52-.164-.659a2.557 2.557 0 0 1 2.481-3.179h4.4a10.93 10.93 0 0 1 4.747-5.92l.56-.334a9.98 9.98 0 0 1 9.59-.369l.056.029a9.975 9.975 0 0 1 5.514 8.92Z"/><path fill="#9E785D" d="M39.652 51.169v3.63a3.838 3.838 0 0 1-7.675 0V48.61h5.116l2.559 2.559ZM27.765 57.19l-2.559 2.559a1.28 1.28 0 0 1-.905.374h-3.107l.549-1.279h-3.681a5.097 5.097 0 0 1-3.382-1.28h9.092l2.182-2.184a1.28 1.28 0 0 1 1.81 1.81ZM16.625 48.61v1.546a2.291 2.291 0 0 1-2.291 2.292h-1.866l-.165-.659a2.56 2.56 0 0 1 2.482-3.179h1.84ZM20.599 72.314a1.278 1.278 0 0 1-1.023-2.047 23.607 23.607 0 0 0 3.516-6.71 1.28 1.28 0 1 1 2.427.808 26.165 26.165 0 0 1-3.896 7.437 1.277 1.277 0 0 1-1.024.512Z"/><path fill="#834B10" d="M30.695 19.188a8.723 8.723 0 0 0 5.341-5.035l1.055-2.64-6.396-1.28v8.955ZM37.094 11.513l.15.225a16.731 16.731 0 0 0 13.921 7.45v-8.954l-14.071 1.279ZM36.13 23.346a1.599 1.599 0 1 0 0-3.199 1.599 1.599 0 0 0 0 3.199ZM45.724 23.346a1.599 1.599 0 1 0 0-3.199 1.599 1.599 0 0 0 0 3.199ZM40.931 28.143h-2.558a1.279 1.279 0 0 1-1.144-1.852l2.558-5.117a1.279 1.279 0 1 1 2.288 1.145l-1.632 3.265h.488a1.28 1.28 0 0 1 0 2.559Z"/><path fill="#C3C3C3" d="M48.607 52.448a1.28 1.28 0 0 1-1.279-1.28v-8.954a1.28 1.28 0 0 1 2.559 0v8.955a1.28 1.28 0 0 1-1.28 1.279Z"/><path fill="#E4E4E2" d="M48.611 58.844a3.838 3.838 0 1 0 0-7.675 3.838 3.838 0 0 0 0 7.675Z"/><path fill="#C3C3C3" d="M48.607 56.285a1.28 1.28 0 1 0 0-2.558 1.28 1.28 0 0 0 0 2.559Z"/><path fill="#F6BB92" d="M53.721 75.474H34.533a3.838 3.838 0 1 1 0-7.676h1.28a2.558 2.558 0 0 1 2.558-2.558h.22c.678 0 1.328.27 1.808.75l1.81 1.808H53.72v7.676ZM11.173 69.535a3.191 3.191 0 0 0 2.044 4.386l4.924 1.391a3.838 3.838 0 0 0 2.088-7.386l-1.232-.347a2.558 2.558 0 0 0-1.766-3.158l-.211-.06a2.558 2.558 0 0 0-1.945.23 7.764 7.764 0 0 0-3.286 3.58l-.616 1.364Z"/><path fill="#DC4D41" d="M4.514 34.348c.851 0 1.668.338 2.27.94l1.618 1.618 1.618-1.618a3.212 3.212 0 0 1 5.386 1.493 3.926 3.926 0 0 1-1.631 4.218l-5.373 3.582L3.03 41a3.926 3.926 0 0 1-1.631-4.218 3.211 3.211 0 0 1 3.115-2.433Z"/><path fill="#EEB58E" d="M30.695 19.188h1.28v7.675h-1.28v-7.675ZM49.89 19.188h1.28v7.675h-1.28v-7.675Z"/><path fill="#F6BB92" d="m35.977 41.075 4.958 4.977 4.906-4.939a1.28 1.28 0 0 1-1.069-1.262v-4.033h-7.675v3.988a1.28 1.28 0 0 1-1.12 1.27Z"/><path fill="#85BC94" d="M40.931 37.097a8.955 8.955 0 0 1-8.954-8.954v-1.28h17.909v1.28a8.954 8.954 0 0 1-8.955 8.954Z"/><path fill="#9E785D" d="M25.584 51.169a1.28 1.28 0 1 0 0-2.559 1.28 1.28 0 0 0 0 2.559Z"/><path fill="#000" d="M36.138 23.346a1.599 1.599 0 1 0 0-3.198 1.599 1.599 0 0 0 0 3.198ZM45.732 23.346a1.6 1.6 0 1 0 0-3.198 1.6 1.6 0 0 0 0 3.198ZM48.607 56.285a1.28 1.28 0 1 0 0-2.558 1.28 1.28 0 0 0 0 2.559Z"/><path fill="#000" d="m58.318 43.238 1.18-2.797a7.913 7.913 0 0 0-1.705-8.694 5.378 5.378 0 0 1-1.577-3.806l.066-12.59a15.35 15.35 0 0 0-30.702 0v12.59a5.421 5.421 0 0 1-1.576 3.806 7.939 7.939 0 0 0-1.706 8.694l.588 1.397A12.194 12.194 0 0 0 18.3 47.33h-3.515a3.811 3.811 0 0 0-3.276 1.839 3.802 3.802 0 0 0-.447 2.93l.165.659.63 2.519a6.386 6.386 0 0 0 6.204 4.845h1.74l-1.15 2.687c-.099.23-.203.46-.31.689a3.87 3.87 0 0 0-.764-.31l-.211-.06a3.813 3.813 0 0 0-2.917.345 9.103 9.103 0 0 0-3.827 4.17l-.616 1.365a4.469 4.469 0 0 0 .659 4.724c-.247.345-.484.695-.712 1.049a1.28 1.28 0 0 0 1.076 1.971h43.973a6.403 6.403 0 0 0 6.396-6.396V49.995a8.947 8.947 0 0 0-3.08-6.757Zm.522 6.757v5.011h-4.71a8.589 8.589 0 0 0-.435-.536 5.13 5.13 0 0 0-3.81-4.419v-6.967l2.349.392 1.261.21a6.391 6.391 0 0 1 5.345 6.309Zm-7.385 14.433-.016.022c-.02.026-.04.052-.058.08l-.013.02a1.303 1.303 0 0 0-.052.087l-.007.016c-.016.032-.032.064-.046.098l-.004.01a1.31 1.31 0 0 0-.039.108c0 .004-.002.007-.003.011a1.2 1.2 0 0 0-.027.11l-.005.03-.014.094a1.292 1.292 0 0 0-.006.127v1.28H42.74l-1.434-1.434a3.845 3.845 0 0 0-.375-.327V50.937c0-1.291-.221-2.573-.656-3.789a1.275 1.275 0 0 0 1.68-.329l3.383-4.512c.095.028.191.05.288.067l1.701.284v7.393a5.117 5.117 0 1 0 5.514 7.824 5.953 5.953 0 0 1-1.301 6.46c-.03.03-.058.061-.085.093Zm-20.76-43.96h.002v5.116a2.56 2.56 0 0 1-2.56-2.557 2.558 2.558 0 0 1 2.558-2.56Zm23.028 2.558a2.561 2.561 0 0 1-2.558 2.558v-5.116a2.562 2.562 0 0 1 2.558 2.558Zm-5.117 2.558h-8.164l1.633-3.265a1.278 1.278 0 0 0-1.549-1.793 1.278 1.278 0 0 0-.74.649l-2.204 4.41h-4.326v-6.202a9.997 9.997 0 0 0 3.97-4.755l.205-.514a17.85 17.85 0 0 0 11.175 6.17v5.3Zm-10.24 2.559h10.24a7.675 7.675 0 1 1-15.35 0h5.11Zm2.565 10.233c.863.001 1.723-.108 2.558-.323v1.798c.001.192.023.383.066.57l-2.624 3.499-2.633-3.511c.049-.197.074-.4.075-.603v-1.753c.835.215 1.695.324 2.558.324Zm-2.558 16.422a2.559 2.559 0 0 1-5.117 0V49.89h3.308l1.809 1.81v3.1Zm12.792.208a2.558 2.558 0 1 1-5.117 0 2.558 2.558 0 0 1 5.117 0Zm5.975-15.558-1.008 2.388a8.919 8.919 0 0 0-2.215-.672l-1.262-.211-6.607-1.102V37a10.238 10.238 0 0 0 5.117-8.857c.873 0 1.731-.224 2.493-.65v.448a7.935 7.935 0 0 0 2.327 5.616 5.363 5.363 0 0 1 1.155 5.89ZM40.931 2.558a12.795 12.795 0 0 1 12.792 12.793v3.246a5.084 5.084 0 0 0-2.558-.688c-.4 0-.797-.016-1.182-.046A15.348 15.348 0 0 1 38.31 11.03l-.15-.226a1.279 1.279 0 0 0-2.253.235l-1.055 2.64a7.423 7.423 0 0 1-4.391 4.237 5.08 5.08 0 0 0-2.321.682v-3.246A12.807 12.807 0 0 1 40.93 2.558ZM25.813 33.557a7.89 7.89 0 0 0 2.326-5.616v-.486c.777.452 1.66.689 2.558.688A10.238 10.238 0 0 0 35.814 37v2.806l-2.861.358a11.28 11.28 0 0 0-.744-.207 11.246 11.246 0 0 0-7.073.632l-.48-1.14a5.38 5.38 0 0 1 1.157-5.892ZM14.785 49.889h.562v.267a1.013 1.013 0 0 1-1.013 1.013h-.826v-.024c.002-.053.006-.107.014-.16l.007-.047c.01-.062.026-.122.046-.18l.007-.019a1.297 1.297 0 0 1 .197-.359 1.268 1.268 0 0 1 1.006-.49Zm9.516 10.234a1.279 1.279 0 0 0 .905-.374l2.558-2.559a1.278 1.278 0 1 0-1.809-1.809l-2.184 2.184h-5.71a3.831 3.831 0 0 1-3.722-2.907l-.232-.93h.227a3.575 3.575 0 0 0 3.571-3.572v-.267h1.28a1.279 1.279 0 0 0 1.213-.874 9.65 9.65 0 0 1 4.19-5.226l.562-.336a8.69 8.69 0 0 1 8.348-.328l.068.035a8.6 8.6 0 0 1 1.667 1.09 8.666 8.666 0 0 1 2.414 3.209 1.278 1.278 0 0 0-.554-.128h-5.117a1.28 1.28 0 0 0-1.279 1.28v6.188a5.106 5.106 0 0 0 7.676 4.427v4.735a3.839 3.839 0 0 0-3.62 2.558h-.218a5.113 5.113 0 0 0-4.429 7.676h-6.5a5.12 5.12 0 0 0-.095-5.302 26.342 26.342 0 0 0 2.004-4.527 1.28 1.28 0 0 0-2.427-.81 23.766 23.766 0 0 1-1.512 3.54 5.107 5.107 0 0 0-1-.4l-.21-.06a3.796 3.796 0 0 0-.21-1.027 26 26 0 0 0 .847-1.792l1.583-3.694H24.3Zm-11.963 9.939.616-1.365a6.528 6.528 0 0 1 2.744-2.99 1.274 1.274 0 0 1 .973-.115l.21.06a1.28 1.28 0 0 1 .884 1.579 1.28 1.28 0 0 0 .883 1.579l1.231.348a2.558 2.558 0 0 1-1.39 4.924l-4.926-1.391a1.912 1.912 0 0 1-1.224-2.628l-.001-.001Zm46.502.295a3.842 3.842 0 0 1-3.838 3.838H34.535a2.558 2.558 0 1 1 0-5.117h1.28a1.28 1.28 0 0 0 1.278-1.28 1.277 1.277 0 0 1 1.28-1.279h.219c.339.003.664.137.905.376l1.809 1.808a1.28 1.28 0 0 0 .904.375h10.234a1.28 1.28 0 0 0 1.28-1.28v-2.052a8.524 8.524 0 0 0 1.726-8.181h3.39v12.792Z"/><path fill="#000" d="M16.643 36.47a4.491 4.491 0 0 0-7.531-2.086l-.713.713-.714-.713A4.49 4.49 0 0 0 .154 36.47a5.216 5.216 0 0 0 2.162 5.594l5.373 3.582a1.28 1.28 0 0 0 1.419 0l5.373-3.582a5.216 5.216 0 0 0 2.162-5.594Zm-3.582 3.465-4.663 3.11-4.663-3.11a2.652 2.652 0 0 1-1.1-2.844 1.933 1.933 0 0 1 3.241-.898l1.618 1.618a1.28 1.28 0 0 0 1.809 0l1.618-1.618a1.934 1.934 0 0 1 3.24.898 2.653 2.653 0 0 1-1.1 2.844ZM25.584 51.169a1.28 1.28 0 1 0 0-2.559 1.28 1.28 0 0 0 0 2.559Z"/></svg>