<svg xmlns="http://www.w3.org/2000/svg" width="28" height="27" fill="none"><path fill="#FBDD7B" d="M23.574 17.05c-2.198-3.213-4.567-6.738-10.106-5.254-2.469.661-4.112 1.934-5.023 3.892-.808 1.734-.953 3.77-1.101 5.71-.184 2.379 2.288 4.068 4.446 3.021 1.771-.859 4.173-2.15 8.026-2.428 1.485-.107 1.628-.099 2.012-.201 2.006-.538 2.976-2.944 1.746-4.74Z"/><path fill="#FECB3E" d="M21.829 21.79c2.005-.538 2.976-2.944 1.745-4.74-2.197-3.213-4.566-6.738-10.105-5.254l2.887 10.777c2.775-.744 4.57-.541 5.473-.783Z"/><path fill="#FFF8E0" d="m16.564 16.404-1.085.29-.29-1.084a.674.674 0 1 0-1.302.348l.29 1.085-1.085.29a.674.674 0 1 0 .35 1.302l1.084-.29.29 1.085a.674.674 0 0 0 1.303-.35l-.291-1.084 1.085-.29a.674.674 0 0 0-.35-1.302Z"/><path fill="#FFE799" d="m16.123 19.08-.291-1.084 1.085-.29a.674.674 0 1 0-.35-1.303l-1.084.291-.29-1.085a.674.674 0 0 0-.826-.476l1.28 4.773a.674.674 0 0 0 .476-.825Z"/><path fill="#FECB3E" d="M21.277 6.212a2.473 2.473 0 0 0-1.747 3.026 2.473 2.473 0 0 0 3.026 1.747c1.316-.352 2.143-1.722 1.79-3.037-.352-1.316-1.753-2.089-3.069-1.736ZM16.422 8.916c1.512-.405 2.325-2.271 1.817-4.168-.508-1.897-2.146-3.107-3.658-2.702-1.512.405-2.325 2.272-1.817 4.169.509 1.897 2.146 3.106 3.658 2.701Z"/><path fill="#FBDD7B" d="M9.477 10.776c1.511-.405 2.325-2.271 1.817-4.168C10.785 4.71 9.148 3.5 7.636 3.906c-1.512.405-2.325 2.272-1.817 4.169.508 1.897 2.146 3.106 3.658 2.701ZM3.922 10.863c-1.316.352-2.143 1.721-1.79 3.037.352 1.316 1.753 2.088 3.069 1.736a2.473 2.473 0 0 0 1.747-3.026 2.474 2.474 0 0 0-3.026-1.747Z"/></svg>