<svg xmlns="http://www.w3.org/2000/svg" width="178" height="87" fill="none"><path fill="#FFBD54" d="M10.95 37.881 0 32.836l11.854-5.474c.337-16.378 16.16-19.929 22.722-19.293 6.563.636 25.654 12.345 17.961 36.262-2.62 8.15-2.002 29.24 28.586 27.292-2.297 4.33-13.082 22.29-48.182 10.864C23.21 79.32 9.344 63.64 10.95 37.881Z"/><path fill="#78C0DE" d="M110.814 32.703c.961-11.6-5.053-22.116-8.575-24.539-3.288-2.26-3.3 7.496-6.227 12.846a36.95 36.95 0 0 0-14.235-2.828A36.938 36.938 0 0 0 67.567 21c-2.922-5.353-2.937-15.095-6.222-12.837-3.52 2.412-9.52 12.92-8.577 24.5-3.623 5.08-5.737 11.166-5.737 17.713 0 17.78 15.557 30.967 34.745 30.967 19.19 0 34.745-13.187 34.745-30.968 0-6.528-2.103-12.598-5.707-17.672Z"/><path fill="#000" d="M109.115 52.411c.898-15.917 6.977-18.117 7.775-27.85 1.107-13.48 10.391-23.28 14.979-24.486 4.587-1.204-1.265 12.474 2.847 17.117 8.599-2.981 14.06-.443 18.373 4.223 4.316 4.668-1.317 9.125 7.13 7.93 3.475-.494 7.087-.378 10.11.392.287-.189.596-.35.931-.466 2.379-.824 5.052.662 5.975 3.321a5.513 5.513 0 0 1 .188 2.977c.106.513.149 1.058.117 1.637-.466 8.182-10.549 19.452-16.814 20.273-6.263.822-12.915-.26-13.084 12.273-.226 16.693-37.177 23.3-46.228 6.353 6.624-4.792 7.016-11.538 7.701-23.694Z"/><path fill="#000" d="M136.872 22.14c4.324.382 7.761-1.916 11.105-4.491-1.345-.166-2.831-.177-4.498.014-2.506-4.531 4.754-14.617.794-14.471-3.568.127-12.702 5.018-16.914 13.883 3.057 2.054 5.489 5.283 9.513 5.065Z"/><path fill="#fff" d="M38.144 34.435a3.659 3.659 0 0 0-1.578-.12c-1.547.22-2.854 1.433-3.245 3l-3.47 12.961-6.917-11.498c-.868-1.383-2.475-2.167-4-1.95-.52.075-1 .26-1.43.55-.97.599-1.64 1.501-1.886 2.544a3.777 3.777 0 0 0 .484 2.893l11.703 19.647c.084.17.215.415.443.615a1.07 1.07 0 0 0 .276.223l.104.149.143.108c.052.04.111.081.179.119l.027.194.494.165.151.113 1.12.242.334.062.166-.024c.285.015.496-.015.618-.032.167-.023.384-.055.654-.15l.252-.035.206-.142 1.005-.646.206-.275c.06-.066.147-.162.236-.3.07-.081.13-.172.175-.27.03-.048.06-.097.089-.147l.017-.028a1.22 1.22 0 0 0 .231-.36c.1-.185.18-.407.225-.618l5.848-22.135a3.804 3.804 0 0 0-.335-2.938c-.533-.942-1.44-1.626-2.525-1.917ZM81.582 34.28c-9.318.164-16.82 8.104-16.722 17.72.24 9.688 7.848 17.202 17.32 17.105h.01c4.987-.087 9.022-1.66 12.332-4.81.805-.762 1.245-1.73 1.27-2.8.034-1.375-.628-2.58-1.269-3.261-.69-.792-1.902-1.249-3.256-1.226-1.36.024-2.615.534-3.466 1.402-1.092.82-2.992 1.366-4.876 1.4a9.77 9.77 0 0 1-.78-.018c-1.968-.134-4.203-1.12-5.312-2.344l-.09-.09c-.505-.461-.953-1.115-1.304-1.89l18.592-.324c2.421-.042 4.289-1.547 4.595-3.681.073-.268.086-.561.08-.899l-.01-.4c-.718-9.365-7.916-16.044-17.114-15.883Zm7.64 12.785-14.176.248c.97-1.92 3.116-3.967 6.668-4.227 3.64.256 6.225 2.145 7.508 3.98ZM138.075 49.683c2.535.264 4.897-1.625 5.157-4.126.265-2.546-1.615-4.834-4.194-5.103l-.241-.025.785-7.53c.27-2.587-1.545-4.825-4.132-5.095-2.622-.274-4.887 1.539-5.157 4.126l-.787 7.528-.485-.05c-2.588-.27-4.827 1.545-5.097 4.133a4.646 4.646 0 0 0 4.133 5.096l.485.05-1.636 15.665c-.462 4.418 2.758 8.39 7.178 8.85 2.587.271 4.825-1.543 5.097-4.132.227-2.172-.979-4.099-2.87-4.85l1.52-14.564.244.027Z"/></svg>